<?xml version="1.0" encoding="UTF-8"?>
<!-- Generated by Pixelmator Pro 3.7 -->
<svg width="483" height="483" viewBox="0 0 483 483" xmlns="http://www.w3.org/2000/svg">
    <linearGradient id="linearGradient1" x1="7.81965" y1="356.744352" x2="439.246031" y2="40.916046" gradientUnits="userSpaceOnUse">
        <stop offset="1e-05" stop-color="#7fb8a4" stop-opacity="1"/>
        <stop offset="1" stop-color="#4f9a8b" stop-opacity="1"/>
    </linearGradient>
    <path id="Path" fill="url(#linearGradient1)" stroke="none" d="M 142.747284 274.785034 C 110.824951 292.468872 82.740692 314.418884 58.303833 341.067627 C 53.584625 346.213989 48.214783 350.771851 41.761505 353.811096 C 27.612488 360.474792 13.314911 355.439117 9.249329 342.209412 C 6.306152 332.63205 8.279053 323.362915 11.796509 314.391083 C 19.461609 294.840179 33.719757 280.893738 50.69754 269.338715 C 72.290436 254.642639 96.424042 245.561615 121.056122 237.625549 C 158.9375 225.420715 197.827728 216.819733 235.979614 205.58075 C 282.493225 191.878571 327.843323 175.425262 367.698059 146.888794 C 395.122253 127.252747 417.547913 103.254211 430.139709 71.2677 C 433.693115 62.241211 436.11853 52.933105 436.711182 43.203979 C 436.761108 42.383667 436.766846 41.5271 437.875671 40.916016 C 439.935425 41.988892 439.099731 43.929626 438.964478 45.564819 C 435.768799 84.197632 417.577942 115.344727 390.742004 142.195313 C 366.04364 166.907166 336.680603 184.787079 305.738892 200.35788 C 274.910645 215.871643 242.86261 228.640228 211.171967 242.206024 C 188.038025 252.108948 165.124084 262.447144 142.747284 274.785034 Z"/>
    <linearGradient id="linearGradient2" x1="49.455808" y1="419.112824" x2="434.707588" y2="100.455292" gradientUnits="userSpaceOnUse">
        <stop offset="1e-05" stop-color="#b7c85a" stop-opacity="1"/>
        <stop offset="1" stop-color="#8fae3c" stop-opacity="1"/>
    </linearGradient>
    <path id="path1" fill="url(#linearGradient2)" stroke="none" d="M 159.940063 330.937012 C 138.196838 351.210022 121.165924 374.854492 104.569031 398.870605 C 99.099365 406.785278 92.49054 413.599976 83.192535 417.043823 C 73.980865 420.455719 65.033752 419.87558 57.231873 413.590973 C 49.267334 407.175323 48.549988 398.166473 50.144897 388.935272 C 52.000153 378.196625 57.456451 369.02887 63.713318 360.286377 C 81.411743 335.557159 105.104065 317.592499 130.316345 301.396484 C 162.657166 280.621124 197.679901 265.095642 232.671021 249.527435 C 269.789001 233.01297 307.22113 217.161591 341.927917 195.721741 C 373.162109 176.427063 400.920105 153.414856 421.597778 122.655701 C 425.508728 116.83786 428.85321 110.6987 431.545654 104.208862 C 432.133179 102.792603 432.188354 100.869781 434.327026 100.455292 C 435.356445 102.47467 434.038757 104.03833 433.418091 105.654114 C 421.875916 135.702393 403.039917 160.569336 379.287231 181.97937 C 351.742371 206.807526 320.286011 225.892181 288.33075 244.272919 C 254.252319 263.874908 219.698975 282.727509 188.446411 306.839905 C 178.681122 314.374176 169.21225 322.266357 159.940063 330.937012 Z"/>
    <linearGradient id="linearGradient3" x1="131.869529" y1="440.649164" x2="471.164507" y2="41.82151" gradientUnits="userSpaceOnUse">
        <stop offset="1e-05" stop-color="#6b664b" stop-opacity="1"/>
        <stop offset="1" stop-color="#4e4a36" stop-opacity="1"/>
    </linearGradient>
    <path id="path2" fill="url(#linearGradient3)" stroke="none" d="M 351.984741 217.952148 C 382.48761 196.875549 410.038147 173.148865 431.324341 142.901978 C 452.297791 113.099304 466.140015 80.515381 468.761414 43.737671 C 468.806335 43.107788 469.07196 42.493591 469.247864 41.821533 C 471.726074 42.173889 471.115723 44.02002 471.054077 45.285583 C 470.251282 61.756226 468.390747 78.061279 464.261658 94.097595 C 449.683899 150.713318 414.894714 192.835144 369.162537 227.129913 C 346.087402 244.434082 321.307922 259.221619 297.460327 275.387146 C 275.216614 290.465332 253.740906 306.535889 235.106445 325.988373 C 213.029816 349.034119 198.167633 376.310516 189.290924 406.917633 C 185.51709 419.929901 179.613159 431.445068 166.517639 437.54187 C 157.781311 441.609253 148.922607 442.190613 140.972015 436.209595 C 132.879517 430.121826 130.993347 421.170959 132.204254 411.57254 C 134.998566 389.42276 146.17041 371.233459 159.874268 354.351868 C 181.24585 328.024536 208.07785 308.101501 236.18396 289.704712 C 266.714111 269.721252 298.889648 252.437683 329.619873 232.784546 C 337.054382 228.029907 344.335571 223.035553 351.984741 217.952148 Z"/>
    <linearGradient id="linearGradient4" x1="221.356212" y1="400.28736" x2="477.304442" y2="108.974426" gradientUnits="userSpaceOnUse">
        <stop offset="1e-05" stop-color="#8a8f8e" stop-opacity="1"/>
        <stop offset="1" stop-color="#5f6362" stop-opacity="1"/>
    </linearGradient>
    <path id="path3" fill="url(#linearGradient4)" stroke="none" d="M 449.415894 169.436707 C 462.066162 151.216003 471.411011 131.878723 476.029724 108.974426 C 477.819214 112.307251 477.294617 114.360291 476.99231 116.33374 C 471.526611 152.016449 455.875305 183.049438 433.750061 211.146637 C 411.085388 239.929077 383.165222 263.114105 354.680664 285.726196 C 339.941772 297.426514 324.979004 308.867371 311.206848 321.736664 C 293.968628 337.844818 280.418091 356.673126 269.862549 377.729126 C 266.781006 383.87619 262.942261 389.531311 257.550964 393.936584 C 251.595886 398.802521 244.755798 401.271149 237.099182 399.921143 C 225.055878 397.797699 218.953796 386.263153 222.237 372.292328 C 225.799896 357.131561 234.965027 345.238434 245.343384 334.305939 C 261.731873 317.04245 281.105469 303.386169 300.716736 290.111328 C 329.409241 270.689453 359.187927 252.885345 386.997253 232.145996 C 410.801025 214.393921 431.827148 193.881073 449.415894 169.436707 Z"/>
</svg>
