<svg version="1.1" xmlns="http://www.w3.org/2000/svg" xmlns:xlink="http://www.w3.org/1999/xlink" x="0px" y="0px"
	 width="100%" viewBox="0 0 1024 672" enable-background="new 0 0 1024 672" xml:space="preserve">
<defs>
    <linearGradient id="g1" x1="0" y1="1" x2="1" y2="0">
      <stop offset="0%" stop-color="#7FB8A4"/>
      <stop offset="100%" stop-color="#4F9A8B"/>
    </linearGradient>
    <linearGradient id="g2" x1="0" y1="1" x2="1" y2="0">
      <stop offset="0%" stop-color="#B7C85A"/>
      <stop offset="100%" stop-color="#8FAE3C"/>
    </linearGradient>
    <linearGradient id="g3" x1="0" y1="1" x2="1" y2="0">
      <stop offset="0%" stop-color="#6B664B"/>
      <stop offset="100%" stop-color="#4E4A36"/>
    </linearGradient>
    <linearGradient id="g4" x1="0" y1="1" x2="1" y2="0">
      <stop offset="0%" stop-color="#8A8F8E"/>
      <stop offset="100%" stop-color="#5F6362"/>
    </linearGradient>
  </defs>
<path fill="url(#g1)" opacity="1.000000" stroke="none" 
	d="
M420.747284,360.785034 
	C388.824951,378.468872 360.740692,400.418884 336.303833,427.067627 
	C331.584625,432.213989 326.214783,436.771851 319.761505,439.811096 
	C305.612488,446.474792 291.314911,441.439117 287.249329,428.209412 
	C284.306152,418.632050 286.279053,409.362915 289.796509,400.391083 
	C297.461609,380.840179 311.719757,366.893738 328.697540,355.338715 
	C350.290436,340.642639 374.424042,331.561615 399.056122,323.625549 
	C436.937500,311.420715 475.827728,302.819733 513.979614,291.580750 
	C560.493225,277.878571 605.843323,261.425262 645.698059,232.888809 
	C673.122253,213.252747 695.547913,189.254196 708.139709,157.267685 
	C711.693115,148.241211 714.118530,138.933105 714.711182,129.203949 
	C714.761108,128.383667 714.766846,127.527084 715.875671,126.916046 
	C717.935425,127.988861 717.099731,129.929611 716.964478,131.564804 
	C713.768799,170.197647 695.577942,201.344711 668.742004,228.195312 
	C644.043640,252.907166 614.680603,270.787079 583.738892,286.357880 
	C552.910645,301.871643 520.862610,314.640228 489.171967,328.206024 
	C466.038025,338.108948 443.124084,348.447144 420.747284,360.785034 
z"/>
<path fill="url(#g2)" opacity="1.000000" stroke="none" 
	d="
M437.940063,416.937012 
	C416.196838,437.210022 399.165924,460.854492 382.569031,484.870605 
	C377.099365,492.785278 370.490540,499.599976 361.192535,503.043823 
	C351.980865,506.455719 343.033752,505.875580 335.231873,499.590973 
	C327.267334,493.175323 326.549988,484.166473 328.144897,474.935272 
	C330.000153,464.196625 335.456451,455.028870 341.713318,446.286377 
	C359.411743,421.557159 383.104065,403.592499 408.316345,387.396484 
	C440.657166,366.621124 475.679901,351.095642 510.671021,335.527435 
	C547.789001,319.012970 585.221130,303.161591 619.927917,281.721741 
	C651.162109,262.427063 678.920105,239.414871 699.597778,208.655685 
	C703.508728,202.837860 706.853210,196.698700 709.545654,190.208862 
	C710.133179,188.792587 710.188354,186.869781 712.327026,186.455292 
	C713.356445,188.474670 712.038757,190.038330 711.418091,191.654114 
	C699.875916,221.702377 681.039917,246.569321 657.287231,267.979370 
	C629.742371,292.807526 598.286011,311.892181 566.330750,330.272919 
	C532.252319,349.874908 497.698975,368.727509 466.446411,392.839905 
	C456.681122,400.374176 447.212250,408.266357 437.940063,416.937012 
z"/>
<path fill="url(#g3)" opacity="1.000000" stroke="none" 
	d="
M629.984741,303.952148 
	C660.487610,282.875549 688.038147,259.148865 709.324341,228.901978 
	C730.297791,199.099304 744.140015,166.515396 746.761414,129.737656 
	C746.806335,129.107758 747.071960,128.493591 747.247864,127.821510 
	C749.726074,128.173904 749.115723,130.020004 749.054077,131.285568 
	C748.251282,147.756210 746.390747,164.061295 742.261658,180.097610 
	C727.683899,236.713303 692.894714,278.835144 647.162537,313.129913 
	C624.087402,330.434082 599.307922,345.221619 575.460327,361.387146 
	C553.216614,376.465332 531.740906,392.535889 513.106445,411.988373 
	C491.029816,435.034119 476.167633,462.310516 467.290924,492.917633 
	C463.517090,505.929901 457.613159,517.445068 444.517639,523.541870 
	C435.781311,527.609253 426.922607,528.190613 418.972015,522.209595 
	C410.879517,516.121826 408.993347,507.170959 410.204254,497.572540 
	C412.998566,475.422760 424.170410,457.233459 437.874268,440.351868 
	C459.245850,414.024536 486.077850,394.101501 514.183960,375.704712 
	C544.714111,355.721252 576.889648,338.437683 607.619873,318.784546 
	C615.054382,314.029907 622.335571,309.035553 629.984741,303.952148 
z"/>
<path fill="url(#g4)" opacity="1.000000" stroke="none" 
	d="
M727.415894,255.436707 
	C740.066162,237.216019 749.411011,217.878708 754.029724,194.974426 
	C755.819214,198.307266 755.294617,200.360291 754.992310,202.333740 
	C749.526611,238.016449 733.875305,269.049438 711.750061,297.146637 
	C689.085388,325.929077 661.165222,349.114105 632.680664,371.726196 
	C617.941772,383.426514 602.979004,394.867371 589.206848,407.736664 
	C571.968628,423.844818 558.418091,442.673126 547.862549,463.729126 
	C544.781006,469.876190 540.942261,475.531311 535.550964,479.936584 
	C529.595886,484.802521 522.755798,487.271149 515.099182,485.921143 
	C503.055878,483.797699 496.953796,472.263153 500.237000,458.292328 
	C503.799896,443.131561 512.965027,431.238434 523.343384,420.305939 
	C539.731873,403.042450 559.105469,389.386169 578.716736,376.111328 
	C607.409241,356.689453 637.187927,338.885345 664.997253,318.145996 
	C688.801025,300.393921 709.827148,279.881073 727.415894,255.436707 
z"/>
</svg>